:FULLY-SPECIFIED
:FORCE-ALL-JOINTS-BE-3DOF
:DEGREES
1020
root 0.247504 13.5561 -35.3857 372.299 -28.1861 342.296
lfemur -69.9706 35.9974 -4.06266
ltibia 82.206 0 0
lfoot -12.7513 -8.40701 0
ltoes -6.04514 0 0
rfemur 10.227 -8.71057 8.68611
rtibia 36.4923 0 0
rfoot -22.6095 -26.1254 0
rtoes -31.4863 0 0
lowerback 10.3174 -0.648967 5.64248
upperback -1.64721 0.363468 8.00205
thorax -7.61545 0.0890398 5.32546
lowerneck -6.26972 8.09871 3.76809
upperneck 8.25879 10.5737 -0.932698
head 4.10263 5.30098 -0.361289
lclavicle -1.43673e-14 -2.85016e-14 0
lhumerus 83.8602 -10.2863 27.4471
lradius 95.5016 0 0
lwrist 9.77888 0 0
lhand -36.2134 31.2408 0
lfingers 7.12502 0 0
lthumb -8.70735 59.2858 0
rclavicle 1.16324e-14 -2.98999e-14 0
rhumerus -77.5303 23.1551 -95.089
rradius 112.142 0 0
rwrist -63.179 0 0
rhand -10.0521 -25.4731 0
rfingers 7.12502 0 0
rthumb 15.7695 -54.6254 0
1021
root 0.246428 13.5528 -35.3769 372.275 -28.1762 342.313
lfemur -70.005 36.0305 -4.09435
ltibia 82.2769 0 0
lfoot -12.8017 -8.4166 0
ltoes -6.09521 0 0
rfemur 10.2692 -8.70465 8.66869
rtibia 36.4816 0 0
rfoot -22.6062 -26.1355 0
rtoes -31.4651 0 0
lowerback 10.2874 -0.789171 5.47745
upperback -1.81465 0.173717 8.11367
thorax -7.7717 0.00554305 5.58204
lowerneck -5.30263 8.21476 3.61802
upperneck 8.01124 10.783 -0.998588
head 3.82443 5.4032 -0.397208
lclavicle -1.37436e-14 -2.95572e-14 0
lhumerus 83.8432 -9.82504 27.617
lradius 95.2573 0 0
lwrist 9.64504 0 0
lhand -36.2773 31.0798 0
lfingers 7.12502 0 0
lthumb -8.71774 59.322 0
rclavicle 1.56997e-14 -2.91185e-14 0
rhumerus -77.5474 23.1765 -95.1003
rradius 112.127 0 0
rwrist -63.1974 0 0
rhand -10.0483 -25.4643 0
rfingers 7.12502 0 0
rthumb 15.7671 -54.6029 0
1022
root 0.245708 13.5496 -35.3692 372.285 -28.1519 342.329
lfemur -70.0394 36.0636 -4.12604
ltibia 82.3477 0 0
lfoot -12.8521 -8.42619 0
ltoes -6.14529 0 0
rfemur 10.3114 -8.69874 8.65127
rtibia 36.4709 0 0
rfoot -22.6029 -26.1455 0
rtoes -31.444 0 0
lowerback 10.2589 -0.83997 5.40937
upperback -1.87143 0.101125 8.14679
thorax -7.81317 -0.0261421 5.67166
lowerneck -5.02538 8.26271 3.52909
upperneck 7.94613 10.8638 -0.995879
head 3.74332 5.44243 -0.392086
lclavicle -1.31198e-14 -3.06128e-14 0
lhumerus 83.8261 -9.36377 27.7868
lradius 95.0129 0 0
lwrist 9.51119 0 0
lhand -36.3411 30.9188 0
lfingers 7.12502 0 0
lthumb -8.72814 59.3582 0
rclavicle 1.97671e-14 -2.83371e-14 0
rhumerus -77.5645 23.1979 -95.1117
rradius 112.111 0 0
rwrist -63.2158 0 0
rhand -10.0446 -25.4556 0
rfingers 7.12502 0 0
rthumb 15.7647 -54.5805 0
1023
root 0.244334 13.5456 -35.3606 372.3 -28.1567 342.324
lfemur -70.0738 36.0966 -4.15772
ltibia 82.4186 0 0
lfoot -12.9025 -8.43578 0
ltoes -6.19536 0 0
rfemur 10.3535 -8.69283 8.63385
rtibia 36.4602 0 0
rfoot -22.5996 -26.1556 0
rtoes -31.4298 0 0
lowerback 10.2051 -0.811759 5.42256
upperback -1.86025 0.132276 8.12126
thorax -7.77132 -0.0119926 5.62792
lowerneck -5.04604 8.24865 3.51057
upperneck 7.94516 10.844 -0.975884
head 3.7438 5.43277 -0.382848
lclavicle -1.36582e-14 -3.03478e-14 0
lhumerus 83.809 -8.9025 27.9567
lradius 94.7685 0 0
lwrist 9.37735 0 0
lhand -36.3053 30.9516 0
lfingers 7.12502 0 0
lthumb -8.73853 59.3944 0
rclavicle 2.38345e-14 -2.75557e-14 0
rhumerus -77.5817 23.2193 -95.123
rradius 112.095 0 0
rwrist -63.2341 0 0
rhand -10.0408 -25.4469 0
rfingers 7.12502 0 0
rthumb 15.7623 -54.558 0
1024
root 0.24394 13.5419 -35.3533 372.29 -28.1712 342.361
lfemur -70.1082 36.1297 -4.18941
ltibia 82.4895 0 0
lfoot -12.953 -8.44536 0
ltoes -6.17761 0 0
rfemur 10.3957 -8.68691 8.61644
rtibia 36.4495 0 0
rfoot -22.5963 -26.1657 0
rtoes -31.4155 0 0
lowerback 10.1852 -0.849302 5.34252
upperback -1.88584 0.0728161 8.13821
thorax -7.7842 -0.0370324 5.70279
lowerneck -4.88081 8.30708 3.43768
upperneck 7.91975 10.9345 -0.983165
head 3.70061 5.47614 -0.376808
lclavicle -1.41965e-14 -3.00827e-14 0
lhumerus 83.7919 -8.44124 28.1265
lradius 94.5241 0 0
lwrist 9.24351 0 0
lhand -36.2695 30.9844 0
lfingers 7.12502 0 0
lthumb -8.74893 59.4305 0
rclavicle 2.79019e-14 -2.67742e-14 0
rhumerus -77.5988 23.2407 -95.1343
rradius 112.08 0 0
rwrist -63.2525 0 0
rhand -10.037 -25.4382 0
rfingers 7.12502 0 0
rthumb 15.7599 -54.5355 0
1025
root 0.24242 13.5374 -35.3458 372.303 -28.1907 342.344
lfemur -70.1059 36.1346 -4.16723
ltibia 82.5603 0 0
lfoot -13.0034 -8.45495 0
ltoes -6.15986 0 0
rfemur 10.4379 -8.681 8.59902
rtibia 36.4388 0 0
rfoot -22.593 -26.1758 0
rtoes -31.4013 0 0
lowerback 10.1627 -0.81763 5.34497
upperback -1.87423 0.111007 8.11861
thorax -7.76054 -0.018818 5.67172
lowerneck -4.91514 8.29554 3.44113
upperneck 7.9404 10.9179 -0.983958
head 3.71442 5.46774 -0.376345
lclavicle -1.47349e-14 -2.98177e-14 0
lhumerus 83.7748 -7.97997 28.2964
lradius 94.3154 0 0
lwrist 9.10967 0 0
lhand -36.2338 31.0173 0
lfingers 7.12502 0 0
lthumb -8.75932 59.4667 0
rclavicle 3.19692e-14 -2.59928e-14 0
rhumerus -77.616 23.2621 -95.1457
rradius 112.064 0 0
rwrist -63.2708 0 0
rhand -10.0332 -25.4295 0
rfingers 7.12502 0 0
rthumb 15.7575 -54.513 0
1026
root 0.241835 13.5333 -35.339 372.306 -28.1668 342.36
lfemur -70.1035 36.1394 -4.14504
ltibia 82.6312 0 0
lfoot -13.0538 -8.46454 0
ltoes -6.14211 0 0
rfemur 10.4472 -8.69496 8.57818
rtibia 36.428 0 0
rfoot -22.5898 -26.1858 0
rtoes -31.3871 0 0
lowerback 10.1503 -0.830868 5.30728
upperback -1.88432 0.0884574 8.12446
thorax -7.76301 -0.0279407 5.70346
lowerneck -4.86763 8.32399 3.40872
upperneck 7.93106 10.9617 -0.999513
head 3.70187 5.48813 -0.376144
lclavicle -1.52733e-14 -2.95526e-14 0
lhumerus 83.7577 -7.5187 28.4662
lradius 94.1067 0 0
lwrist 8.97582 0 0
lhand -36.198 31.0501 0
lfingers 7.12502 0 0
lthumb -8.76972 59.5029 0
rclavicle 3.60366e-14 -2.52114e-14 0
rhumerus -77.6331 23.2834 -95.157
rradius 112.049 0 0
rwrist -63.2892 0 0
rhand -10.0294 -25.4208 0
rfingers 7.12502 0 0
rthumb 15.7709 -54.518 0
1027
root 0.240287 13.5293 -35.3317 372.332 -28.1899 342.343
lfemur -70.1012 36.1443 -4.12286
ltibia 82.6905 0 0
lfoot -13.1042 -8.47413 0
ltoes -6.12435 0 0
rfemur 10.4564 -8.70892 8.55733
rtibia 36.4173 0 0
rfoot -22.5865 -26.1959 0
rtoes -31.3729 0 0
lowerback 10.1211 -0.84843 5.24611
upperback -1.91042 0.0587301 8.1681
thorax -7.77306 -0.038782 5.79179
lowerneck -4.69934 8.36729 3.37278
upperneck 7.88953 11.0337 -1.06655
head 3.65881 5.52118 -0.39697
lclavicle -1.58117e-14 -2.92876e-14 0
lhumerus 83.7406 -7.05744 28.6361
lradius 93.8979 0 0
lwrist 8.84198 0 0
lhand -36.1622 31.0829 0
lfingers 7.12502 0 0
lthumb -8.78011 59.5391 0
rclavicle 4.0104e-14 -2.44299e-14 0
rhumerus -77.6503 23.3048 -95.1683
rradius 112.033 0 0
rwrist -63.3076 0 0
rhand -10.0256 -25.4121 0
rfingers 7.12502 0 0
rthumb 15.7842 -54.523 0
1028
root 0.239316 13.5241 -35.3266 372.327 -28.1637 342.349
lfemur -70.0989 36.1492 -4.10068
ltibia 82.7498 0 0
lfoot -13.1547 -8.48371 0
ltoes -6.1066 0 0
rfemur 10.4657 -8.72288 8.53649
rtibia 36.4066 0 0
rfoot -22.5832 -26.206 0
rtoes -31.3586 0 0
lowerback 10.1131 -0.838304 5.23928
upperback -1.88804 0.0676372 8.15285
thorax -7.74447 -0.0344062 5.77573
lowerneck -4.74913 8.36507 3.38924
upperneck 7.88024 11.0304 -1.09598
head 3.66827 5.5185 -0.407079
lclavicle -1.635e-14 -2.90225e-14 0
lhumerus 83.7236 -6.59617 28.8059
lradius 93.6892 0 0
lwrist 8.70814 0 0
lhand -36.1264 31.1157 0
lfingers 7.12502 0 0
lthumb -8.79051 59.5753 0
rclavicle 4.41714e-14 -2.36485e-14 0
rhumerus -77.6674 23.3262 -95.1796
rradius 112.017 0 0
rwrist -63.3259 0 0
rhand -10.0218 -25.4034 0
rfingers 7.12502 0 0
rthumb 15.7976 -54.5279 0
1029
root 0.238492 13.5195 -35.3189 372.296 -28.166 342.366
lfemur -70.0965 36.154 -4.07849
ltibia 82.8091 0 0
lfoot -13.2051 -8.4933 0
ltoes -6.08885 0 0
rfemur 10.475 -8.73685 8.51564
rtibia 36.3959 0 0
rfoot -22.5799 -26.2161 0
rtoes -31.3444 0 0
lowerback 10.123 -0.820688 5.23171
upperback -1.87532 0.0895017 8.13923
thorax -7.7375 -0.0235707 5.76095
lowerneck -4.75392 8.36157 3.38314
upperneck 7.87818 11.0274 -1.11177
head 3.66908 5.51621 -0.411123
lclavicle -1.68884e-14 -2.87575e-14 0
lhumerus 83.7065 -6.13491 28.9758
lradius 93.4805 0 0
lwrist 8.71142 0 0
lhand -36.0907 31.1485 0
lfingers 7.12502 0 0
lthumb -8.8009 59.6115 0
rclavicle 4.82387e-14 -2.28671e-14 0
rhumerus -77.6846 23.3476 -95.191
rradius 112.002 0 0
rwrist -63.3443 0 0
rhand -10.018 -25.3947 0
rfingers 7.12502 0 0
rthumb 15.8109 -54.5329 0
1030
root 0.237145 13.5145 -35.3135 372.322 -28.1622 342.356
lfemur -70.0942 36.1589 -4.05631
ltibia 82.8683 0 0
lfoot -13.2555 -8.50289 0
ltoes -6.0711 0 0
rfemur 10.4842 -8.75081 8.4948
rtibia 36.3852 0 0
rfoot -22.5766 -26.2261 0
rtoes -31.3302 0 0
lowerback 10.0963 -0.823336 5.20065
upperback -1.87841 0.0804512 8.15872
thorax -7.72506 -0.0261885 5.80081
lowerneck -4.71251 8.37963 3.33436
upperneck 7.84821 11.0565 -1.1113
head 3.64785 5.52955 -0.404292
lclavicle -1.74268e-14 -2.84925e-14 0
lhumerus 83.6894 -5.67364 29.1456
lradius 93.2718 0 0
lwrist 8.7147 0 0
lhand -36.0549 31.1814 0
lfingers 7.12502 0 0
lthumb -8.8113 59.6477 0
rclavicle 5.23061e-14 -2.20857e-14 0
rhumerus -77.7017 23.369 -95.2023
rradius 111.986 0 0
rwrist -63.3626 0 0
rhand -10.0142 -25.386 0
rfingers 7.12502 0 0
rthumb 15.8243 -54.5379 0
1031
root 0.236489 13.5093 -35.3081 372.368 -28.1547 342.32
lfemur -70.0919 36.1637 -4.03413
ltibia 82.9276 0 0
lfoot -13.3059 -8.51248 0
ltoes -6.05335 0 0
rfemur 10.4935 -8.76477 8.47396
rtibia 36.3745 0 0
rfoot -22.5733 -26.2362 0
rtoes -31.316 0 0
lowerback 10.0573 -0.805134 5.24679
upperback -1.86757 0.104548 8.14259
thorax -7.69208 -0.0169099 5.7506
lowerneck -4.77639 8.39151 3.32727
upperneck 7.88471 11.068 -1.07239
head 3.67005 5.53607 -0.386004
lclavicle -1.79652e-14 -2.82274e-14 0
lhumerus 83.6723 -5.21237 29.3155
lradius 93.0631 0 0
lwrist 8.71799 0 0
lhand -36.0191 31.2142 0
lfingers 7.12502 0 0
lthumb -8.8217 59.6839 0
rclavicle 5.63735e-14 -2.13042e-14 0
rhumerus -77.6825 23.3308 -95.1942
rradius 111.971 0 0
rwrist -63.381 0 0
rhand -10.0104 -25.3772 0
rfingers 7.12502 0 0
rthumb 15.8377 -54.5429 0
